# xmcd
#
# Track frame offsets:
#	150
#	12767
#	23835
#	35378
#	45067
#	58478
#	72634
#	85425
#	95235
#	103998
#	116085
#	127874
#	143277
#	152442
#	165994
#	180160
#	192490
#
# Disc length: 2727
#
# Revision: 2
# Processed by: cddbd v1.5.1PL0 Copyright (c) Steve Scherf et al.
# Submitted via: dBpowerAMP V4.0
# Normalized: r0:TSWAP
#
DISCID=d90aa511
DTITLE=Various Artist - Back In The Country 4 of 4
DYEAR=1900
DGENRE=Country
TTITLE0=Kenny Rogers and First Edition - Reuben James
TTITLE1=Dolly Parton - It Wasn't God Who Made Honky Tonk Angels
TTITLE2=Willie Nelson - I'm Going To Lose a Lot Of Teardrops
TTITLE3=Barbara Mandrell - Release me
TTITLE4=David Houston - Almost Persuaded
TTITLE5=Johnny Paycheck - I'm The Only Hell My Momma Ever Raised
TTITLE6=Lynn Anderson - Top of the World
TTITLE7=Ned Miller - From a jack To A King
TTITLE8=Waylon Jennings - Love's Gonna Live here
TTITLE9=Red Steagall - Truck Drivin Man
TTITLE10=Donna Fargo - The Happiest Girl in the Whole USA
TTITLE11=Kenny Rogers and First Edition - For The Good Times
TTITLE12=Kitty Wells - I'll Repossess My Heart
TTITLE13=Deborah Allen - I've Been Wrong Before
TTITLE14=Frankie laine - Don't Fence Me In
TTITLE15=Lynn Anderson - Statnd By Your Man
TTITLE16=Freddy Fender - Before The Next Teardrop Falls
EXTD=
EXTT0=
EXTT1=
EXTT2=
EXTT3=
EXTT4=
EXTT5=
EXTT6=
EXTT7=
EXTT8=
EXTT9=
EXTT10=
EXTT11=
EXTT12=
EXTT13=
EXTT14=
EXTT15=
EXTT16=
PLAYORDER=
